{"title":"Repo Men [Unrated][1080][Dual-Es_En]","uid":9466754,"size":10846984017,"categoryP":"video","categoryS":"hd___movies","magnet":"?xt=urn:btih:6bac8deecb26a4e5b70d2bf9ff8c40a34d657da0&amp;dn=Repo+Men+%5BUnrated%5D%5B1080%5D%5BDual-Es_En%5D&amp;tr=udp%3A%2F%2Ftracker.openbittorrent.com%3A80&amp;tr=udp%3A%2F%2Fopen.demonii.com%3A1337&amp;tr=udp%3A%2F%2Ftracker.coppersurfer.tk%3A6969&amp;tr=udp%3A%2F%2Fexodus.desync.com%3A6969","seeders":0,"leechers":2,"uploader":"junkymana","files":2,"time":1389469492,"description":"Repo Men [Unrated][1080][Dual-Es_En] MKV\n\nFormat                         : Matroska\nFormat version                 : Version 2\nFile size                      : 10.1 GiB\nDuration                       : 1h 59mn\nOverall bit rate               : 12.1 Mbps\nEncoded date                   : UTC 2012-11-19 01:59:10\nWriting application            : mkvmerge v3.4.0 ('Rapunzel') built on May 15 2010 09:38:20\nWriting library                : libebml v0.8.0 + libmatroska v0.9.0\n\nVideo\nID                             : 1\nFormat                         : AVC\nFormat/Info                    : Advanced Video Codec\nFormat profile                 : &lt;a class=&quot;__cf_email__&quot; href=&quot;/cdn-cgi/l/email-protection&quot; data-cfemail=&quot;460e2f212e060a726877&quot;&gt;[email&amp;#160;protected]&lt;/a&gt;&lt;script cf-hash='f9e31' type=&quot;text/javascript&quot;&gt;\n/* &lt;![CDATA[ */!function(){try{var t=&quot;currentScript&quot;in document?document.currentScript:function(){for(var t=document.getElementsByTagName(&quot;script&quot;),e=t.length;e--;)if(t[e].getAttribute(&quot;cf-hash&quot;))return t[e]}();if(t&amp;&amp;t.previousSibling){var e,r,n,i,c=t.previousSibling,a=c.getAttribute(&quot;data-cfemail&quot;);if(a){for(e=&quot;&quot;,r=parseInt(a.substr(0,2),16),n=2;a.length-n;n+=2)i=parseInt(a.substr(n,2),16)^r,e+=String.fromCharCode(i);e=document.createTextNode(e),c.parentNode.replaceChild(e,c)}}}catch(u){}}();/* ]]&gt; */&lt;/script&gt;\nFormat settings, CABAC         : Yes\nFormat settings, ReFrames      : 5 frames\nCodec ID                       : V_MPEG4/ISO/AVC\nDuration                       : 1h 59mn\nBit rate                       : 11.0 Mbps\nWidth                          : 1 920 pixels\nHeight                         : 816 pixels\nDisplay aspect ratio           : 2.35:1\nFrame rate                     : 23.976 fps\nColor space                    : YUV\nChroma subsampling             : 4:2:0\nBit depth                      : 8 bits\nScan type                      : Progressive\nBits/(Pixel*Frame)             : 0.293\nStream size                    : 8.99 GiB (89%)\nTitle                          : Repo Men (2010)\nWriting library                : x264 core 104 r1683 62997d6\nEncoding settings              : cabac=1 / ref=5 / deblock=1:-3:-3 / analyse=0x3:0x113 / me=tesa / subme=10 / psy=1 / psy_rd=0.90:0.00 / mixed_ref=1 / me_range=16 / chroma_me=1 / trellis=2 / 8x8dct=1 / cqm=0 / deadzone=21,11 / fast_pskip=0 / chroma_qp_offset=-2 / threads=12 / sliced_threads=0 / nr=0 / decimate=0 / interlaced=0 / constrained_intra=0 / bframes=6 / b_pyramid=2 / b_adapt=2 / b_bias=0 / direct=3 / weightb=1 / open_gop=1 / weightp=2 / keyint=250 / keyint_min=23 / scenecut=40 / intra_refresh=0 / rc=2pass / mbtree=0 / bitrate=11000 / ratetol=1.0 / qcomp=0.60 / qpmin=10 / qpmax=51 / qpstep=4 / cplxblur=20.0 / qblur=0.5 / ip_ratio=1.40 / pb_ratio=1.30 / aq=1:0.70\nLanguage                       : English\nDefault                        : Yes\nForced                         : No\n\nAudio #1\nID                             : 2\nFormat                         : AC-3\nFormat/Info                    : Audio Coding 3\nMode extension                 : CM (complete main)\nCodec ID                       : A_AC3\nDuration                       : 1h 59mn\nBit rate mode                  : Constant\nBit rate                       : 448 Kbps\nChannel(s)                     : 6 channels\nChannel positions              : Front: L C R, Side: L R, LFE\nSampling rate                  : 48.0 KHz\nBit depth                      : 16 bits\nCompression mode               : Lossy\nStream size                    : 383 MiB (4%)\nTitle                          : AC3 5.1 @ 448 kbps\nLanguage                       : Spanish\nDefault                        : Yes\nForced                         : No\n\nAudio #2\nID                             : 3\nFormat                         : AC-3\nFormat/Info                    : Audio Coding 3\nMode extension                 : CM (complete main)\nCodec ID                       : A_AC3\nDuration                       : 1h 59mn\nBit rate mode                  : Constant\nBit rate                       : 640 Kbps\nChannel(s)                     : 6 channels\nChannel positions              : Front: L C R, Side: L R, LFE\nSampling rate                  : 48.0 KHz\nBit depth                      : 16 bits\nCompression mode               : Lossy\nStream size                    : 548 MiB (5%)\nTitle                          : AC3 5.1 @ 640 kbps\nLanguage                       : English\nDefault                        : No\nForced                         : No\n\nText #1\nID                             : 4\nFormat                         : UTF-8\nCodec ID                       : S_TEXT/UTF8\nCodec ID/Info                  : UTF-8 Plain Text\nLanguage                       : English\nDefault                        : No\nForced                         : No\n\nText #2\nID                             : 5\nFormat                         : UTF-8\nCodec ID                       : S_TEXT/UTF8\nCodec ID/Info                  : UTF-8 Plain Text\nLanguage                       : Spanish\nDefault                        : No\nForced                         : No\n\nText #3\nID                             : 6\nFormat                         : UTF-8\nCodec ID                       : S_TEXT/UTF8\nCodec ID/Info                  : UTF-8 Plain Text\nTitle                          : forzados\nLanguage                       : Spanish\nDefault                        : Yes\nForced                         : No\n\nMenu\n00:00:00.000                   : :1. No Need For Violence\n00:05:25.659                   : :2. The Union\n00:11:04.080                   : :3. A Job's a Job\n00:17:51.654                   : :4. Just A Kidney\n00:24:19.541                   : :5. Enforcing The Rules\n00:27:57.259                   : :6. Knockout #3\n00:32:25.068                   : :7. You're A Very Lucky Man\n00:41:45.503                   : :8. Past Due\n00:48:22.858                   : :9. Two Pieces Of The Same Puzzle\n00:52:38.906                   : :10. Robbing Banks\n00:56:50.157                   : :11. Artificial Everything\n01:02:16.691                   : :12. A Cautionary Tale\n01:06:25.481                   : :13. Jumping Credit\n01:11:15.313                   : :14. Security Jam\n01:21:25.839                   : :15. Can't Go Back\n01:27:19.025                   : :16. No Escape\n01:34:07.809                   : :17. Wipe The System\n01:40:56.050                   : :18. Scanning Out\n01:49:25.016                   : :19. Sweet Dreams\n01:53:19.459                   : :20. End Titles","torrent":{"xt":"urn:btih:6bac8deecb26a4e5b70d2bf9ff8c40a34d657da0","amp;dn":"Repo+Men+%5BUnrated%5D%5B1080%5D%5BDual-Es_En%5D","amp;tr":["udp%3A%2F%2Ftracker.openbittorrent.com%3A80","udp%3A%2F%2Fopen.demonii.com%3A1337","udp%3A%2F%2Ftracker.coppersurfer.tk%3A6969","udp%3A%2F%2Fexodus.desync.com%3A6969"],"infoHash":"6bac8deecb26a4e5b70d2bf9ff8c40a34d657da0","infoHashBuffer":{"type":"Buffer","data":[107,172,141,238,203,38,164,229,183,13,43,249,255,140,64,163,77,101,125,160]},"announce":[],"urlList":[]}}